# File produced by Open Asset Import Library (http://www.assimp.sf.net)
# (assimp v5.2.0)

mtllib right_hand_thumb_0_link.mtl

# 94 vertex positions
v  -0.0115 0.000500000024 0.00949999969
v  -0.0115 0.0193000007 0.00949999969
v  -0.0115 0.000500000024 -0.00949999969
v  -0.0115 0.0193000007 -0.00949999969
v  -0.0114230039 0.0204747356 0.00949999969
v  -0.0114230039 0.0204747356 -0.00949999969
v  -0.0111933323 0.0216293707 0.00949999969
v  -0.0111933323 0.0216293707 -0.00949999969
v  -0.0108149154 0.0227441508 0.00949999969
v  -0.0108149154 0.0227441508 -0.00949999969
v  -0.0102942288 0.0238000005 0.00949999969
v  -0.0102942288 0.0238000005 -0.00949999969
v  -0.00964018051 0.0247788522 0.00949999969
v  -0.00964018051 0.0247788522 -0.00949999969
v  -0.00886396132 0.0256639607 0.00949999969
v  -0.00886396132 0.0256639607 -0.00949999969
v  -0.00797885284 0.0264401808 0.00949999969
v  -0.00797885284 0.0264401808 -0.00949999969
v  -0.00700000022 0.0270942282 0.00949999969
v  -0.00700000022 0.0270942282 -0.00949999969
v  -0.00594415097 0.0276149157 0.00949999969
v  -0.00594415097 0.0276149157 -0.00949999969
v  -0.00482937135 0.0279933326 0.00949999969
v  -0.00482937135 0.0279933326 -0.00949999969
v  -0.00367473578 0.0282230042 0.00949999969
v  -0.00367473578 0.0282230042 -0.00949999969
v  -0.00249999994 0.0283000004 0.00949999969
v  -0.00249999994 0.0283000004 -0.00949999969
v  0.00739289308 0.0283000004 -0.00949999969
v  0.00739289308 0.0283000004 0.00949999969
v  0.00774644641 0.0281535536 0.00949999969
v  0.00995355379 0.0259464458 0.00949999969
v  0.00774644641 0.0281535536 -0.00949999969
v  0.00995355379 0.0259464458 -0.00949999969
v  0.0100999996 0.0255928934 0.00949999969
v  0.0100999996 0.000500000024 0.00949999969
v  0.0100999996 0.0255928934 -0.00949999969
v  0.0100999996 0.000500000024 -0.00949999969
v  -0.0109999999 2.5840047e-18 -0.00949999969
v  0.00960000046 6.12323421e-20 -0.00949999969
v  -0.0109999999 2.5840047e-18 0.00949999969
v  0.00960000046 6.12323421e-20 0.00949999969
v  -0.0114924042 0.000413175905 -0.00949999969
v  -0.0109999999 2.493665e-18 -0.00949999969
v  0.0100045083 0.0258867852 -0.00949999969
v  0.0100455033 0.0258198883 -0.00949999969
v  0.0100755282 0.0257474016 -0.00949999969
v  0.0100698462 0.000328989932 -0.00949999969
v  0.0100330124 0.000250000012 -0.00949999969
v  0.00992139336 0.000116977775 -0.00949999969
v  0.00985000003 6.6987297e-05 -0.00949999969
v  0.00977100991 3.01536893e-05 -0.00949999969
v  0.00754740182 0.0282755289 -0.00949999969
v  0.00761988852 0.0282455031 -0.00949999969
v  0.00768678589 0.0282045081 -0.00949999969
v  0.0100938445 0.0256711096 -0.00949999969
v  0.0100924037 0.000413175905 -0.00949999969
v  0.00998302177 0.000178606191 -0.00949999969
v  0.00968682393 7.5961234e-06 -0.00949999969
v  -0.0113213938 0.000116977775 -0.00949999969
v  -0.0113830222 0.000178606191 -0.00949999969
v  -0.0112500004 6.6987297e-05 -0.00949999969
v  -0.0110868244 7.5961234e-06 -0.00949999969
v  -0.0111710103 3.01536893e-05 -0.00949999969
v  -0.0114330128 0.000250000012 -0.00949999969
v  -0.0114698466 0.000328989932 -0.00949999969
v  0.00747111067 0.0282938443 -0.00949999969
v  0.0100755282 0.0257474016 0.00949999969
v  0.0100455033 0.0258198883 0.00949999969
v  -0.0114924042 0.000413175905 0.00949999969
v  -0.0114698466 0.000328989932 0.00949999969
v  0.0100938445 0.0256711096 0.00949999969
v  0.0100045083 0.0258867852 0.00949999969
v  0.00754740182 0.0282755289 0.00949999969
v  0.00747111067 0.0282938443 0.00949999969
v  0.0100330124 0.000250000012 0.00949999969
v  0.0100698462 0.000328989932 0.00949999969
v  0.00960000046 0 0.00949999969
v  0.00977100991 3.01536893e-05 0.00949999969
v  0.00985000003 6.6987297e-05 0.00949999969
v  0.00992139336 0.000116977775 0.00949999969
v  0.0100924037 0.000413175905 0.00949999969
v  -0.0114330128 0.000250000012 0.00949999969
v  -0.0113830222 0.000178606191 0.00949999969
v  -0.0113213938 0.000116977775 0.00949999969
v  -0.0112500004 6.6987297e-05 0.00949999969
v  -0.0111710103 3.01536893e-05 0.00949999969
v  -0.0110868244 7.5961234e-06 0.00949999969
v  0.00968682393 7.5961234e-06 0.00949999969
v  0.00768678589 0.0282045081 0.00949999969
v  0.00761988852 0.0282455031 0.00949999969
v  0.00998302177 0.000178606191 0.00949999969
v  -0.0109999999 2.493665e-18 0.00949999969
v  0.00960000046 0 -0.00949999969

# 0 UV coordinates

# 47 vertex normals
vn -1 0 0
vn -0.997858942 0.0654031038 0
vn -0.980785191 0.195090652 0
vn -0.94693011 0.321439475 0
vn -0.896872997 0.442288131 0
vn -0.831469417 0.555570543 0
vn -0.751839876 0.659345746 0
vn -0.659346223 0.751839459 0
vn -0.555569589 0.831470013 0
vn -0.442288905 0.89687264 0
vn -0.321439594 0.94693011 0
vn -0.195090577 0.980785251 0
vn -0.0654030517 0.997858942 0
vn 0 1 0
vn 0.707106829 0.707106709 0
vn 1 0 0
vn -1.22464672e-16 -1 0
vn 0 0 -1
vn 0 0 1
vn 0.078461431 0.996917129 0
vn 0.233439401 0.97237134 0
vn 0.382692844 0.92387563 0
vn 0.522500396 0.852639019 0
vn 0.649445236 0.760408342 0
vn 0.760408342 0.649445236 0
vn 0.85263741 0.522503018 0
vn 0.923879802 0.382682711 0
vn 0.972369313 0.233447924 0
vn 0.996917963 0.0784510225 0
vn -0.0871554241 -0.99619472 0
vn -0.258819073 -0.965925813 0
vn -0.422617406 -0.906308174 0
vn -0.573579013 -0.819150269 0
vn -0.707106829 -0.707106769 0
vn -0.819151461 -0.573577285 0
vn -0.906306922 -0.422620177 0
vn -0.965925813 -0.258819044 0
vn -0.996194959 -0.087152794 0
vn 0.996194959 -0.087152794 0
vn 0.965925813 -0.258819044 0
vn 0.906306922 -0.422620177 0
vn 0.819151461 -0.573577285 0
vn 0.707106829 -0.707106769 0
vn 0.573579013 -0.819150269 0
vn 0.422617406 -0.906308174 0
vn 0.258819073 -0.965925813 0
vn 0.0871563479 -0.996194661 0

# Mesh '' with 176 faces
usemtl DefaultMaterial
f  1//1 2//1 3//1
f  3//1 2//1 4//1
f  4//2 2//2 5//2
f  4//2 5//2 6//2
f  6//3 5//3 7//3
f  6//3 7//3 8//3
f  8//4 7//4 9//4
f  8//4 9//4 10//4
f  10//5 9//5 11//5
f  10//5 11//5 12//5
f  12//6 11//6 13//6
f  12//6 13//6 14//6
f  14//7 13//7 15//7
f  14//7 15//7 16//7
f  16//8 15//8 17//8
f  16//8 17//8 18//8
f  18//9 17//9 19//9
f  18//9 19//9 20//9
f  20//10 19//10 21//10
f  20//10 21//10 22//10
f  22//11 21//11 23//11
f  22//11 23//11 24//11
f  24//12 23//12 25//12
f  24//12 25//12 26//12
f  26//13 25//13 27//13
f  26//13 27//13 28//13
f  29//14 28//14 30//14
f  30//14 28//14 27//14
f  31//15 32//15 33//15
f  33//15 32//15 34//15
f  35//16 36//16 37//16
f  37//16 36//16 38//16
f  39//17 40//17 41//17
f  41//17 40//17 42//17
f  43//18 3//18 44//18
f  44//18 3//18 40//18
f  6//18 26//18 4//18
f  4//18 26//18 28//18
f  4//18 28//18 34//18
f  34//18 28//18 29//18
f  34//18 29//18 33//18
f  34//18 45//18 4//18
f  4//18 45//18 46//18
f  4//18 46//18 47//18
f  40//18 48//18 49//18
f  50//18 51//18 52//18
f  53//18 54//18 55//18
f  47//18 56//18 4//18
f  4//18 56//18 37//18
f  4//18 37//18 3//18
f  3//18 37//18 38//18
f  3//18 38//18 40//18
f  40//18 38//18 57//18
f  40//18 57//18 48//18
f  49//18 58//18 40//18
f  40//18 58//18 50//18
f  40//18 50//18 59//18
f  59//18 50//18 52//18
f  44//18 60//18 61//18
f  12//18 14//18 10//18
f  10//18 14//18 16//18
f  16//18 18//18 10//18
f  10//18 18//18 20//18
f  10//18 20//18 22//18
f  60//18 44//18 62//18
f  62//18 44//18 63//18
f  62//18 63//18 64//18
f  61//18 65//18 44//18
f  44//18 65//18 66//18
f  44//18 66//18 43//18
f  6//18 8//18 26//18
f  26//18 8//18 10//18
f  26//18 10//18 24//18
f  24//18 10//18 22//18
f  33//18 29//18 55//18
f  55//18 29//18 67//18
f  55//18 67//18 53//18
f  68//19 69//19 41//19
f  70//19 71//19 41//19
f  68//19 41//19 72//19
f  69//19 73//19 41//19
f  41//19 73//19 32//19
f  41//19 32//19 31//19
f  74//19 75//19 41//19
f  41//19 75//19 30//19
f  41//19 30//19 27//19
f  7//19 5//19 25//19
f  25//19 5//19 2//19
f  25//19 2//19 27//19
f  27//19 2//19 41//19
f  41//19 2//19 1//19
f  41//19 1//19 70//19
f  76//19 77//19 78//19
f  17//19 15//19 13//19
f  79//19 80//19 81//19
f  77//19 82//19 78//19
f  78//19 82//19 36//19
f  78//19 36//19 41//19
f  41//19 36//19 35//19
f  41//19 35//19 72//19
f  21//19 19//19 9//19
f  9//19 19//19 17//19
f  9//19 17//19 11//19
f  11//19 17//19 13//19
f  71//19 83//19 41//19
f  41//19 83//19 84//19
f  41//19 84//19 85//19
f  85//19 86//19 41//19
f  41//19 86//19 87//19
f  41//19 87//19 88//19
f  79//19 81//19 89//19
f  31//19 90//19 41//19
f  41//19 90//19 91//19
f  41//19 91//19 74//19
f  7//19 25//19 9//19
f  9//19 25//19 23//19
f  9//19 23//19 21//19
f  89//19 81//19 78//19
f  78//19 81//19 92//19
f  78//19 92//19 76//19
f  29//20 30//20 75//20
f  29//20 75//20 67//20
f  67//21 75//21 74//21
f  67//21 74//21 53//21
f  53//22 74//22 91//22
f  53//22 91//22 54//22
f  54//23 91//23 90//23
f  54//23 90//23 55//23
f  55//24 90//24 31//24
f  55//24 31//24 33//24
f  34//25 32//25 73//25
f  34//25 73//25 45//25
f  45//26 73//26 69//26
f  45//26 69//26 46//26
f  46//27 69//27 68//27
f  46//27 68//27 47//27
f  47//28 68//28 72//28
f  47//28 72//28 56//28
f  56//29 72//29 35//29
f  56//29 35//29 37//29
f  44//30 93//30 88//30
f  44//30 88//30 63//30
f  63//31 88//31 87//31
f  63//31 87//31 64//31
f  64//32 87//32 86//32
f  64//32 86//32 62//32
f  62//33 86//33 85//33
f  62//33 85//33 60//33
f  60//34 85//34 84//34
f  60//34 84//34 61//34
f  61//35 84//35 83//35
f  61//35 83//35 65//35
f  65//36 83//36 71//36
f  65//36 71//36 66//36
f  66//37 71//37 70//37
f  66//37 70//37 43//37
f  43//38 70//38 1//38
f  43//38 1//38 3//38
f  38//39 36//39 82//39
f  38//39 82//39 57//39
f  57//40 82//40 77//40
f  57//40 77//40 48//40
f  48//41 77//41 76//41
f  48//41 76//41 49//41
f  49//42 76//42 92//42
f  49//42 92//42 58//42
f  58//43 92//43 81//43
f  58//43 81//43 50//43
f  50//44 81//44 80//44
f  50//44 80//44 51//44
f  51//45 80//45 79//45
f  51//45 79//45 52//45
f  52//46 79//46 89//46
f  52//46 89//46 59//46
f  59//47 89//47 78//47
f  59//47 78//47 94//47

