# File produced by Open Asset Import Library (http://www.assimp.sf.net)
# (assimp v5.2.0)

mtllib waist_roll_link.mtl

# 237 vertex positions
v  -0.00494268537 -0.00620131567 0.0197451655
v  -0.00499762781 -0.0110013122 0.0189998634
v  -0.00494270679 -0.00620128773 0.0182547439
v  -0.00494179269 -0.011001287 0.0182546526
v  -0.00450341776 -0.0062011769 0.01683053
v  -0.00450250367 -0.0110011762 0.0168304387
v  -0.00366385072 -0.0062009939 0.0155990729
v  -0.00366293639 -0.0110009937 0.0155989816
v  -0.00249860529 -0.00620075408 0.0146697918
v  -0.00249769096 -0.0110007534 0.0146697015
v  -0.00111121777 -0.00620047934 0.0141252596
v  -0.00111030345 -0.0110004796 0.0141251683
v  1.38492203e-06 -0.00620026514 0.0139998822
v  0.000375949807 -0.0110001937 0.0140137672
v  0.000375035452 -0.00620019436 0.0140138576
v  0.00182809529 -0.00619992381 0.0143454876
v  0.00182900962 -0.0109999236 0.0143453963
v  0.00311885029 -0.00619969191 0.0150906797
v  0.00311976462 -0.0109996917 0.0150905894
v  0.00413261075 -0.00619951962 0.0161832217
v  0.0041335253 -0.0109995194 0.0161831304
v  0.00477930065 -0.00619942183 0.017526038
v  0.00478021521 -0.0109994216 0.0175259467
v  0.00500145741 -0.00619940739 0.0189998094
v  0.00500237197 -0.0109994067 0.0189997181
v  0.00477934396 -0.00619947771 0.0204735883
v  0.00478025805 -0.0109994775 0.020473497
v  0.00413269317 -0.00619962625 0.0218164213
v  0.00413360726 -0.0109996255 0.02181633
v  0.00311896438 -0.00619983999 0.0229089949
v  0.0031198787 -0.0109998398 0.0229089037
v  0.00182823103 -0.0062001003 0.0236542244
v  0.00182914536 -0.0110000996 0.0236541331
v  0.000375180854 -0.00620038295 0.0239858963
v  0.00037609521 -0.0110003827 0.023985805
v  -0.00111107563 -0.00620066421 0.023874538
v  -0.00111016131 -0.011000664 0.0238744467
v  -0.00249847886 -0.006200918 0.0233300459
v  -0.00249756454 -0.0110009182 0.0233299546
v  -0.00366375153 -0.00620112242 0.0224007983
v  -0.0036628372 -0.0110011222 0.022400707
v  -0.00450335443 -0.00620125933 0.0211693663
v  -0.00450244034 -0.0110012591 0.021169275
v  -0.00494177081 -0.0110013159 0.0197450742
v  0.0099981809 0.011001545 0.0190000627
v  0.00999909546 0.00620154524 0.0189999714
v  0.00999791827 0.0110018859 0.00100006256
v  0.00999894273 0.00620174408 0.00849997159
v  0.0100014573 -0.00619845511 0.0189997368
v  0.0100023719 -0.0109984549 0.0189996455
v  0.0100013046 -0.00619825628 0.0084997369
v  0.0100021092 -0.010998114 0.000999645796
v  0.00999969896 0.00201107538 0.00565345772
v  0.00999941211 0.00346189388 0.0049017393
v  0.00999916811 0.00465610065 0.00378647004
v  0.00999898557 0.00550512737 0.00239036488
v  0.0099988794 0.00594600476 0.000816966814
v  0.00999885611 0.00600190461 -3.23085061e-08
v  0.00999792758 0.0107905641 -0.00114593492
v  0.00999885518 0.00594603596 -0.000817033288
v  0.00999801699 0.0101646399 -0.00320947077
v  0.00999891665 0.00550521817 -0.00239044824
v  0.00999818277 0.00914816745 -0.00511124451
v  0.00999841932 0.00778020779 -0.00677817315
v  0.00999905728 0.00465624407 -0.00378658529
v  0.00999871641 0.00611333176 -0.00814619567
v  0.00999926869 0.00346207968 -0.00490189996
v  0.0099990638 0.00421159621 -0.00916274171
v  0.00999953412 0.00201128959 -0.00565367332
v  0.0099994475 0.00214808364 -0.00978874322
v  0.009999834 0.00041147272 -0.00598615035
v  0.00999985356 2.0942598e-06 -0.010000146
v  0.0100002652 -0.00214390317 -0.00978882425
v  0.010000146 -0.00121871987 -0.00587467384
v  0.0100006675 -0.00420743972 -0.00916290097
v  0.0100004477 -0.00275838445 -0.00532750925
v  0.0100010447 -0.00610921346 -0.00814642757
v  0.010000716 -0.00409333082 -0.00438523898
v  0.0100013819 -0.00777614117 -0.00677846791
v  0.0100008436 -0.00409349706 0.00438479241
v  0.0100006033 -0.00275858631 0.00532711344
v  0.0100003174 -0.00121894246 0.00587433577
v  0.0100000091 0.000411245972 0.00598587468
v  0.0100016668 -0.00914416462 -0.00511159096
v  0.0100009302 -0.00512455218 -0.00311774667
v  0.0100018885 -0.0101607088 -0.00320985587
v  0.0100010764 -0.00577556808 -0.00161903608
v  0.0100020375 -0.0107867112 -0.00114634365
v  0.0100011425 -0.00599809503 -2.59613074e-07
v  0.0100011239 -0.00577562954 0.00161852548
v  0.0100010214 -0.00512467045 0.00311726076
v  -0.0099976277 -0.0110022649 0.0189999379
v  -0.00999854133 -0.00620226469 0.0190000273
v  -0.00999789033 -0.0110019231 0.000999937416
v  -0.00999869499 -0.00620206585 0.0085000284
v  -0.0100009041 0.0061977352 0.019000262
v  -0.0100018177 0.010997735 0.0190003533
v  -0.0100010568 0.00619793404 0.00850026309
v  -0.0100020804 0.0109980758 0.00100035407
v  -0.00999968126 -0.00122275215 0.00587462727
v  -0.00999939628 -0.00276239589 0.00532740494
v  -0.00999885704 -0.00600190461 3.19285327e-08
v  -0.00999796111 -0.0107905213 -0.00114605215
v  -0.00999892317 -0.00577937812 -0.00161874457
v  -0.009999156 -0.00409730664 0.00438508391
v  -0.00999897812 -0.00512848003 0.00311755226
v  -0.00999887567 -0.00577943912 0.00161881698
v  -0.00999955181 -0.00276219426 -0.00532721775
v  -0.00999933202 -0.0042112493 -0.00916260947
v  -0.00999895483 -0.00611302303 -0.00814613514
v  -0.00999928359 -0.00409714039 -0.00438494748
v  -0.00999861676 -0.00777995121 -0.00677817641
v  -0.00999906845 -0.00512836222 -0.00311745517
v  -0.00999833178 -0.00914797373 -0.00511129946
v  -0.00999811105 -0.0101645188 -0.00320956437
v  -0.0100008314 0.00465229107 0.00378676155
v  -0.0100005874 0.00345808431 0.00490203081
v  -0.0100002997 0.00200726581 0.00565374922
v  -0.00999999046 0.000407436251 0.00598616619
v  -0.00999973342 -0.00214771298 -0.00978853274
v  -0.00999985263 -0.00122252968 -0.00587438233
v  -0.010000146 -1.71547435e-06 -0.00999985449
v  -0.0100001656 0.00040766297 -0.00598585885
v  -0.0100005511 0.00214427407 -0.00978845172
v  -0.0100004654 0.00200747978 -0.00565338181
v  -0.0100009348 0.00420778664 -0.00916245021
v  -0.0100010131 0.00550131779 0.00239065639
v  -0.0100011202 0.00594219519 0.000817258318
v  -0.0100012831 0.00610952172 -0.00814590417
v  -0.0100007299 0.00345826987 -0.00490160845
v  -0.0100015802 0.00777639821 -0.00677788164
v  -0.0100009413 0.00465243449 -0.00378629379
v  -0.0100018168 0.00914435741 -0.005110953
v  -0.0100010829 0.00550140813 -0.00239015673
v  -0.0100019826 0.0101608308 -0.00320917927
v  -0.0100011444 0.00594222592 -0.000816741784
v  -0.010002072 0.010786755 -0.00114564341
v  -0.0100011425 0.00599809503 2.59233104e-07
v  -0.00104276766 -0.0110007469 0.0289450251
v  -0.0030876589 -0.0110011287 0.028510401
v  -0.00499750115 -0.0110014761 0.0276601184
v  0.00978387799 -0.0109985359 0.0210787654
v  0.00913788658 -0.0109986961 0.0230670236
v  0.00809262786 -0.0109989299 0.0248775259
v  -0.00668882532 -0.011001775 0.026431337
v  -0.00808771141 -0.0110020116 0.0248777624
v  -0.00913302228 -0.0110021764 0.02306729
v  -0.0097790733 -0.0110022621 0.0210790504
v  0.00669378741 -0.010999226 0.0264311414
v  0.00500249816 -0.0109995715 0.0276599731
v  0.00309268106 -0.0109999515 0.0285103116
v  0.00104780192 -0.0110003492 0.0289449953
v  -0.00450663082 0.0109987408 0.0211696923
v  -0.00494596176 0.010998684 0.0197454914
v  -0.00978326425 0.0109977368 0.0210794676
v  -0.00494598318 0.0109987119 0.0182550699
v  -0.00450669415 0.0109988227 0.016830856
v  -0.00366712711 0.0109990062 0.0155993979
v  -0.00250188168 0.0109992456 0.0146701178
v  -0.00111449417 0.0109995203 0.0141255846
v  0.000371759088 0.0109998053 0.0140141835
v  0.00182481902 0.0110000763 0.0143458126
v  -0.00913721323 0.0109978225 0.0230677072
v  -0.00809190236 0.0109979874 0.0248781797
v  -0.00366702792 0.0109988777 0.0224011242
v  -0.00669301581 0.0109982248 0.0264317542
v  -0.00250175525 0.0109990817 0.0233303718
v  -0.0050016921 0.0109985238 0.0276605356
v  -0.00111435191 0.0109993359 0.023874864
v  0.0031155739 0.0110003082 0.0150910057
v  0.00412933435 0.0110004805 0.0161835477
v  -0.00309184962 0.0109988712 0.0285108183
v  -0.00104695826 0.0109992521 0.0289454423
v  0.000371904491 0.0109996162 0.0239862222
v  0.00104361121 0.0109996507 0.0289454106
v  0.00182495476 0.0109998994 0.0236545503
v  0.00412941677 0.0110003734 0.0218167473
v  0.00913369562 0.0110013029 0.0230674408
v  0.00477606757 0.0110005224 0.0204739142
v  0.00977968797 0.011001464 0.0210791826
v  0.00499818148 0.0110005923 0.0190001354
v  0.00477602426 0.0110005783 0.017526364
v  0.00308849034 0.0110000484 0.028510727
v  0.00499830768 0.0110004283 0.0276603885
v  0.00311568798 0.0110001601 0.0229093209
v  0.00668959646 0.0110007739 0.0264315587
v  0.00808843691 0.01100107 0.0248779431
v  0.00182586908 0.00619990006 0.023654459
v  0.000372818817 0.00619961694 0.023986131
v  -8.31302884e-07 0.00619954569 0.0240001176
v  -0.00111343758 0.00619933615 0.0238747727
v  -0.00250084093 0.00619908189 0.0233302806
v  -0.0036661136 0.00619887747 0.022401033
v  -0.00450571673 0.00619874103 0.021169601
v  -0.0049450472 0.00619868422 0.0197454002
v  -0.00494506909 0.00619871262 0.0182549786
v  -0.00450578006 0.00619882299 0.0168307647
v  -0.00366621278 0.00619900646 0.0155993076
v  -0.00250096736 0.00619924581 0.0146700274
v  -0.00111357972 0.00619952055 0.0141254943
v  0.000372673443 0.006199806 0.0140140932
v  0.00182573334 0.00620007655 0.0143457223
v  0.00311648822 0.00620030798 0.0150909154
v  0.00413024891 0.00620048027 0.0161834564
v  0.00477693882 0.00620057806 0.0175262727
v  0.00499909557 0.0062005925 0.0190000441
v  0.00477698166 0.00620052265 0.020473823
v  0.00413033087 0.00620037364 0.021816656
v  0.00311660231 0.0062001599 0.0229092296
v  -0.00104368199 -0.00620074756 0.0289451163
v  0.0010468876 -0.00620034896 0.0289450847
v  -0.00977998786 -0.00620226236 0.0210791416
v  -0.00913393684 -0.00620217714 0.0230673812
v  -0.00808862597 -0.0062020123 0.0248778537
v  -0.00668973941 -0.00620177528 0.0264314283
v  -0.00499841571 -0.00620147632 0.0276602097
v  -0.00308857323 -0.00620112848 0.0285104923
v  0.00913697202 -0.00619869679 0.0230671149
v  0.00978296436 -0.00619853614 0.0210788567
v  0.00309176673 -0.00619995128 0.028510401
v  0.00500158407 -0.0061995713 0.0276600625
v  0.00669287285 -0.00619922625 0.0264312327
v  0.0080917133 -0.00619893009 0.0248776171
v  0.0097806016 0.00620146422 0.0210790914
v  0.00913461018 0.00620130356 0.0230673496
v  0.00808935147 0.0062010698 0.0248778518
v  -0.00978234969 0.00619773753 0.0210793763
v  -0.00913629867 0.00619782321 0.0230676159
v  -0.0080909878 0.00619798806 0.0248780884
v  0.00669051101 0.00620077411 0.0264314674
v  0.00499922177 0.00620042859 0.0276602991
v  0.00308940466 0.00620004861 0.0285106376
v  0.00104452553 0.00619965093 0.0289453212
v  -0.00104604394 0.00619925279 0.028945351
v  -0.00309093529 0.00619887142 0.028510727
v  -0.00500077754 0.00619852357 0.0276604444
v  -0.00669210171 0.00619822508 0.026431663

# 0 UV coordinates

# 88 vertex normals
vn 0.999934494 -0.0114432862 -1.4796462e-05
vn 0.99720484 0.000188538732 0.0747155547
vn 0.955577075 0.000176441463 0.294741362
vn 0.826246977 0.000146718638 0.563308001
vn 0.623501301 0.000103959224 0.781822324
vn 0.365354627 5.19625464e-05 0.930868387
vn 0.111979187 2.50760263e-06 0.993710577
vn 0.0747402981 0.00871687382 0.997164905
vn -0.0373766385 -2.60485558e-05 0.999301255
vn -0.222506806 -6.08517221e-05 0.974931121
vn -0.499987483 -0.000111645262 0.8660326
vn -0.733041942 -0.000152518609 0.680183411
vn -0.900962532 -0.000179840034 0.433896899
vn -0.988828659 -0.000191181884 0.14905633
vn -0.98883307 -0.000185536395 -0.149027422
vn -0.900975049 -0.000163405115 -0.433870882
vn -0.733062327 -0.000126754778 -0.680161417
vn -0.500012279 -7.88413963e-05 -0.866018295
vn -0.222534642 -2.39227593e-05 -0.974924803
vn 0.0747151002 3.31213159e-05 -0.9972049
vn 0.365327477 8.72226883e-05 -0.930879056
vn 0.623478889 0.000133573922 -0.781840205
vn 0.826230526 0.000168056373 -0.563332081
vn 0.955568373 0.000187606362 -0.294769406
vn 0.997202694 0.0001913694 -0.0747445375
vn 1 0.000190486709 -1.45770809e-05
vn -1 -0.000190486709 1.45770809e-05
vn 0.000190486433 -1 -1.8942048e-05
vn -0.000190486433 1 1.8942048e-05
vn -0.000190697639 0.990688503 -0.136147827
vn -0.000180525269 0.917218804 -0.398383826
vn -0.000156964175 0.775723219 -0.631073236
vn -0.000121761768 0.5766958 -0.816958964
vn -7.75288354e-05 0.334897429 -0.942254603
vn -2.75459497e-05 0.0682612956 -0.997667491
vn 2.44798794e-05 -0.203437418 -0.979087949
vn 7.46901715e-05 -0.460048199 -0.887893915
vn 0.000119361022 -0.682539284 -0.730848908
vn 0.000155179412 -0.854409516 -0.519600153
vn 0.000179488867 -0.962912202 -0.269814879
vn 0.000189047336 -0.997667432 -0.0682614744
vn 0.000191037383 -0.997670054 0.0682236999
vn 0.000187356505 -0.962922394 0.269778371
vn 0.000170331186 -0.854429185 0.519567847
vn 0.000140673219 -0.682567 0.73082298
vn 0.000100582096 -0.460081697 0.88787657
vn 5.30312973e-05 -0.203474373 0.97908026
vn 1.54754196e-06 0.068223007 0.997670114
vn -5.00512833e-05 0.334862143 0.94226712
vn -9.79377946e-05 0.576664865 0.816980779
vn -0.000138560761 0.775699258 0.631102741
vn -0.00016890734 0.917203665 0.398418605
vn -0.000186726829 0.990683377 0.136185378
vn -0.0374057777 1.18034986e-05 -0.999300182
vn 0.074713923 -0.00868835673 -0.99716717
vn 0.111949384 4.01478173e-05 -0.993713915
vn 0.0747448057 -4.65119047e-06 0.997202694
vn 1.45806889e-05 -1.89392704e-05 1
vn -3.31814845e-05 0.0980363637 -0.995182812
vn -6.9248068e-05 0.290302426 -0.956934929
vn -0.00010265375 0.471413672 -0.881912231
vn -0.000132114321 0.634407818 -0.772998512
vn -0.000156497903 0.773022532 -0.634378552
vn -0.000174867339 0.881930232 -0.471379936
vn -0.0001865167 0.956945777 -0.290266633
vn -0.00019099834 0.995186567 -0.0979982316
vn 0.000188140039 -0.995182872 -0.098035939
vn 0.000178051589 -0.95693481 -0.290302873
vn 0.000161120755 -0.881912351 -0.471413344
vn 0.000137998126 -0.772998512 -0.634407878
vn 0.000109572269 -0.634378552 -0.773022532
vn 7.69357139e-05 -0.471380264 -0.881930053
vn 4.13423695e-05 -0.290266156 -0.956945956
vn 4.16052808e-06 -0.0979986638 -0.995186567
vn -0.994520366 -0.000191422892 0.104542948
vn -0.95105195 -0.00018701618 0.30903095
vn -0.866018236 -0.000174435991 0.500012338
vn -0.743134916 -0.000154232039 0.669141591
vn -0.587773383 -0.000127287465 0.809025586
vn -0.406723082 -9.47797671e-05 0.913551509
vn -0.207897484 -5.81298264e-05 0.978150606
vn 0.20792596 2.10790131e-05 0.978144586
vn 0.406749785 6.01760075e-05 0.913539588
vn 0.587796807 9.6643038e-05 0.809008598
vn 0.743154585 0.000128886371 0.669119775
vn 0.866032779 0.000155496717 0.499987185
vn 0.95106101 0.00017531107 0.309003115
vn 0.994523406 0.00018746352 0.104513802

# Mesh '' with 482 faces
usemtl DefaultMaterial
f  1//1 2//1 3//1
f  3//2 2//2 4//2
f  3//3 4//3 5//3
f  5//3 4//3 6//3
f  5//4 6//4 7//4
f  7//4 6//4 8//4
f  7//5 8//5 9//5
f  9//5 8//5 10//5
f  9//6 10//6 11//6
f  11//6 10//6 12//6
f  11//7 12//7 13//7
f  13//8 12//8 14//8
f  13//9 14//9 15//9
f  15//10 14//10 16//10
f  16//10 14//10 17//10
f  16//11 17//11 18//11
f  18//11 17//11 19//11
f  18//12 19//12 20//12
f  20//12 19//12 21//12
f  20//13 21//13 22//13
f  22//13 21//13 23//13
f  22//14 23//14 24//14
f  24//14 23//14 25//14
f  24//15 25//15 26//15
f  26//15 25//15 27//15
f  26//16 27//16 28//16
f  28//16 27//16 29//16
f  28//17 29//17 30//17
f  30//17 29//17 31//17
f  30//18 31//18 32//18
f  32//18 31//18 33//18
f  32//19 33//19 34//19
f  34//19 33//19 35//19
f  34//20 35//20 36//20
f  36//20 35//20 37//20
f  36//21 37//21 38//21
f  38//21 37//21 39//21
f  38//22 39//22 40//22
f  40//22 39//22 41//22
f  40//23 41//23 42//23
f  42//23 41//23 43//23
f  42//24 43//24 1//24
f  1//24 43//24 44//24
f  1//25 44//25 2//25
f  45//26 46//26 47//26
f  47//26 46//26 48//26
f  49//26 50//26 51//26
f  51//26 50//26 52//26
f  53//26 54//26 48//26
f  48//26 54//26 55//26
f  48//26 55//26 47//26
f  47//26 55//26 56//26
f  56//26 57//26 47//26
f  47//26 57//26 58//26
f  47//26 58//26 59//26
f  59//26 58//26 60//26
f  59//26 60//26 61//26
f  61//26 60//26 62//26
f  61//26 62//26 63//26
f  63//26 62//26 64//26
f  64//26 62//26 65//26
f  64//26 65//26 66//26
f  66//26 65//26 67//26
f  66//26 67//26 68//26
f  68//26 67//26 69//26
f  68//26 69//26 70//26
f  70//26 69//26 71//26
f  70//26 71//26 72//26
f  72//26 71//26 73//26
f  73//26 71//26 74//26
f  73//26 74//26 75//26
f  75//26 74//26 76//26
f  75//26 76//26 77//26
f  77//26 76//26 78//26
f  77//26 78//26 79//26
f  80//26 81//26 51//26
f  51//26 81//26 82//26
f  51//26 82//26 48//26
f  48//26 82//26 83//26
f  48//26 83//26 53//26
f  79//26 78//26 84//26
f  84//26 78//26 85//26
f  84//26 85//26 86//26
f  86//26 85//26 87//26
f  86//26 87//26 88//26
f  88//26 87//26 89//26
f  88//26 89//26 52//26
f  52//26 89//26 90//26
f  52//26 90//26 51//26
f  51//26 90//26 91//26
f  51//26 91//26 80//26
f  92//27 93//27 94//27
f  94//27 93//27 95//27
f  96//27 97//27 98//27
f  98//27 97//27 99//27
f  100//27 101//27 95//27
f  94//27 102//27 103//27
f  103//27 102//27 104//27
f  101//27 105//27 95//27
f  95//27 105//27 106//27
f  95//27 106//27 94//27
f  94//27 106//27 107//27
f  94//27 107//27 102//27
f  108//27 109//27 110//27
f  108//27 110//27 111//27
f  111//27 110//27 112//27
f  111//27 112//27 113//27
f  113//27 112//27 114//27
f  113//27 114//27 104//27
f  104//27 114//27 115//27
f  104//27 115//27 103//27
f  116//27 117//27 98//27
f  98//27 117//27 118//27
f  98//27 118//27 95//27
f  95//27 118//27 119//27
f  95//27 119//27 100//27
f  109//27 108//27 120//27
f  120//27 108//27 121//27
f  120//27 121//27 122//27
f  122//27 121//27 123//27
f  122//27 123//27 124//27
f  124//27 123//27 125//27
f  124//27 125//27 126//27
f  116//27 98//27 127//27
f  127//27 98//27 99//27
f  127//27 99//27 128//27
f  126//27 125//27 129//27
f  129//27 125//27 130//27
f  129//27 130//27 131//27
f  131//27 130//27 132//27
f  131//27 132//27 133//27
f  133//27 132//27 134//27
f  133//27 134//27 135//27
f  135//27 134//27 136//27
f  135//27 136//27 137//27
f  137//27 136//27 99//27
f  99//27 136//27 138//27
f  99//27 138//27 128//27
f  27//28 25//28 50//28
f  50//28 25//28 23//28
f  50//28 23//28 52//28
f  52//28 23//28 21//28
f  52//28 21//28 19//28
f  35//28 139//28 37//28
f  37//28 139//28 140//28
f  37//28 140//28 39//28
f  39//28 140//28 141//28
f  39//28 141//28 41//28
f  19//28 17//28 52//28
f  52//28 17//28 14//28
f  52//28 14//28 94//28
f  94//28 14//28 12//28
f  94//28 12//28 10//28
f  10//28 8//28 94//28
f  94//28 8//28 6//28
f  94//28 6//28 92//28
f  50//28 142//28 27//28
f  27//28 142//28 143//28
f  27//28 143//28 29//28
f  29//28 143//28 144//28
f  29//28 144//28 31//28
f  141//28 145//28 41//28
f  41//28 145//28 146//28
f  41//28 146//28 43//28
f  43//28 146//28 147//28
f  43//28 147//28 44//28
f  44//28 147//28 148//28
f  44//28 148//28 2//28
f  2//28 148//28 92//28
f  2//28 92//28 4//28
f  4//28 92//28 6//28
f  144//28 149//28 31//28
f  31//28 149//28 150//28
f  31//28 150//28 33//28
f  33//28 150//28 151//28
f  33//28 151//28 35//28
f  35//28 151//28 152//28
f  35//28 152//28 139//28
f  153//29 154//29 155//29
f  155//29 154//29 97//29
f  97//29 154//29 156//29
f  97//29 156//29 99//29
f  99//29 156//29 157//29
f  99//29 157//29 158//29
f  158//29 159//29 99//29
f  99//29 159//29 160//29
f  99//29 160//29 47//29
f  47//29 160//29 161//29
f  47//29 161//29 162//29
f  155//29 163//29 153//29
f  153//29 163//29 164//29
f  153//29 164//29 165//29
f  165//29 164//29 166//29
f  165//29 166//29 167//29
f  167//29 166//29 168//29
f  167//29 168//29 169//29
f  162//29 170//29 47//29
f  47//29 170//29 171//29
f  47//29 171//29 45//29
f  168//29 172//29 169//29
f  169//29 172//29 173//29
f  169//29 173//29 174//29
f  174//29 173//29 175//29
f  174//29 175//29 176//29
f  177//29 178//29 179//29
f  179//29 178//29 180//29
f  179//29 180//29 181//29
f  181//29 180//29 45//29
f  181//29 45//29 182//29
f  182//29 45//29 171//29
f  175//29 183//29 176//29
f  176//29 183//29 184//29
f  176//29 184//29 185//29
f  185//29 184//29 186//29
f  185//29 186//29 177//29
f  177//29 186//29 187//29
f  177//29 187//29 178//29
f  89//30 102//30 90//30
f  90//30 102//30 107//30
f  90//31 107//31 91//31
f  91//31 107//31 106//31
f  91//32 106//32 80//32
f  80//32 106//32 105//32
f  80//33 105//33 81//33
f  81//33 105//33 101//33
f  81//34 101//34 82//34
f  82//34 101//34 100//34
f  82//35 100//35 83//35
f  83//35 100//35 119//35
f  83//36 119//36 53//36
f  53//36 119//36 118//36
f  53//37 118//37 54//37
f  54//37 118//37 117//37
f  54//38 117//38 55//38
f  55//38 117//38 116//38
f  55//39 116//39 56//39
f  56//39 116//39 127//39
f  56//40 127//40 57//40
f  57//40 127//40 128//40
f  57//41 128//41 58//41
f  58//41 128//41 138//41
f  58//42 138//42 60//42
f  60//42 138//42 136//42
f  60//43 136//43 62//43
f  62//43 136//43 134//43
f  62//44 134//44 65//44
f  65//44 134//44 132//44
f  65//45 132//45 67//45
f  67//45 132//45 130//45
f  67//46 130//46 69//46
f  69//46 130//46 125//46
f  69//47 125//47 71//47
f  71//47 125//47 123//47
f  71//48 123//48 74//48
f  74//48 123//48 121//48
f  74//49 121//49 76//49
f  76//49 121//49 108//49
f  76//50 108//50 78//50
f  78//50 108//50 111//50
f  78//51 111//51 85//51
f  85//51 111//51 113//51
f  85//52 113//52 87//52
f  87//52 113//52 104//52
f  87//53 104//53 89//53
f  89//53 104//53 102//53
f  188//19 189//19 174//19
f  174//54 189//54 190//54
f  174//55 190//55 169//55
f  169//56 190//56 191//56
f  169//21 191//21 167//21
f  167//21 191//21 192//21
f  167//22 192//22 165//22
f  165//22 192//22 193//22
f  165//23 193//23 153//23
f  153//23 193//23 194//23
f  153//24 194//24 154//24
f  154//24 194//24 195//24
f  154//26 195//26 156//26
f  156//26 195//26 196//26
f  156//3 196//3 157//3
f  157//3 196//3 197//3
f  157//4 197//4 158//4
f  158//4 197//4 198//4
f  158//5 198//5 159//5
f  159//5 198//5 199//5
f  159//6 199//6 160//6
f  160//6 199//6 200//6
f  160//57 200//57 161//57
f  161//57 200//57 201//57
f  161//10 201//10 162//10
f  162//10 201//10 202//10
f  162//11 202//11 170//11
f  170//11 202//11 203//11
f  170//12 203//12 171//12
f  171//12 203//12 204//12
f  171//13 204//13 182//13
f  182//13 204//13 205//13
f  182//14 205//14 181//14
f  181//14 205//14 206//14
f  181//15 206//15 179//15
f  179//15 206//15 207//15
f  179//16 207//16 177//16
f  177//16 207//16 208//16
f  177//17 208//17 185//17
f  185//17 208//17 209//17
f  185//18 209//18 176//18
f  176//18 209//18 188//18
f  176//19 188//19 174//19
f  7//29 9//29 95//29
f  36//29 210//29 34//29
f  34//29 210//29 211//29
f  34//29 211//29 32//29
f  42//29 1//29 212//29
f  212//29 1//29 93//29
f  93//29 1//29 3//29
f  93//29 3//29 95//29
f  95//29 3//29 5//29
f  95//29 5//29 7//29
f  9//29 11//29 95//29
f  95//29 11//29 13//29
f  95//29 13//29 51//29
f  51//29 13//29 15//29
f  51//29 15//29 16//29
f  16//29 18//29 51//29
f  51//29 18//29 20//29
f  51//29 20//29 49//29
f  212//29 213//29 42//29
f  42//29 213//29 214//29
f  42//29 214//29 40//29
f  40//29 214//29 215//29
f  40//29 215//29 38//29
f  38//29 215//29 216//29
f  38//29 216//29 36//29
f  36//29 216//29 217//29
f  36//29 217//29 210//29
f  28//29 218//29 26//29
f  26//29 218//29 219//29
f  26//29 219//29 24//29
f  24//29 219//29 49//29
f  24//29 49//29 22//29
f  22//29 49//29 20//29
f  211//29 220//29 32//29
f  32//29 220//29 221//29
f  32//29 221//29 30//29
f  30//29 221//29 222//29
f  30//29 222//29 28//29
f  28//29 222//29 223//29
f  28//29 223//29 218//29
f  203//28 202//28 48//28
f  48//28 202//28 201//28
f  48//28 201//28 98//28
f  98//28 201//28 200//28
f  98//28 200//28 199//28
f  46//28 224//28 207//28
f  207//28 224//28 225//28
f  207//28 225//28 208//28
f  208//28 225//28 226//28
f  208//28 226//28 209//28
f  207//28 206//28 46//28
f  46//28 206//28 205//28
f  46//28 205//28 48//28
f  48//28 205//28 204//28
f  48//28 204//28 203//28
f  199//28 198//28 98//28
f  98//28 198//28 197//28
f  98//28 197//28 96//28
f  96//28 197//28 196//28
f  96//28 196//28 227//28
f  227//28 196//28 195//28
f  227//28 195//28 228//28
f  228//28 195//28 194//28
f  228//28 194//28 229//28
f  229//28 194//28 193//28
f  226//28 230//28 209//28
f  209//28 230//28 231//28
f  209//28 231//28 188//28
f  188//28 231//28 232//28
f  188//28 232//28 189//28
f  189//28 232//28 233//28
f  189//28 233//28 190//28
f  190//28 233//28 234//28
f  190//28 234//28 191//28
f  191//28 234//28 235//28
f  191//28 235//28 192//28
f  192//28 235//28 236//28
f  192//28 236//28 193//28
f  193//28 236//28 237//28
f  193//28 237//28 229//28
f  98//58 95//58 48//58
f  48//58 95//58 51//58
f  72//59 122//59 124//59
f  72//59 124//59 70//59
f  70//60 124//60 126//60
f  70//60 126//60 68//60
f  68//61 126//61 129//61
f  68//61 129//61 66//61
f  66//62 129//62 131//62
f  66//62 131//62 64//62
f  64//63 131//63 133//63
f  64//63 133//63 63//63
f  63//64 133//64 135//64
f  63//64 135//64 61//64
f  61//65 135//65 137//65
f  61//65 137//65 59//65
f  59//66 137//66 99//66
f  59//66 99//66 47//66
f  52//67 94//67 103//67
f  52//67 103//67 88//67
f  88//68 103//68 115//68
f  88//68 115//68 86//68
f  86//69 115//69 114//69
f  86//69 114//69 84//69
f  84//70 114//70 112//70
f  84//70 112//70 79//70
f  79//71 112//71 110//71
f  79//71 110//71 77//71
f  77//72 110//72 109//72
f  77//72 109//72 75//72
f  75//73 109//73 120//73
f  75//73 120//73 73//73
f  73//74 120//74 122//74
f  73//74 122//74 72//74
f  93//75 92//75 148//75
f  93//75 148//75 212//75
f  212//76 148//76 147//76
f  212//76 147//76 213//76
f  213//77 147//77 146//77
f  213//77 146//77 214//77
f  214//78 146//78 145//78
f  214//78 145//78 215//78
f  215//79 145//79 141//79
f  215//79 141//79 216//79
f  216//80 141//80 140//80
f  216//80 140//80 217//80
f  217//81 140//81 139//81
f  217//81 139//81 210//81
f  210//58 139//58 152//58
f  210//58 152//58 211//58
f  211//82 152//82 151//82
f  211//82 151//82 220//82
f  220//83 151//83 150//83
f  220//83 150//83 221//83
f  221//84 150//84 149//84
f  221//84 149//84 222//84
f  222//85 149//85 144//85
f  222//85 144//85 223//85
f  223//86 144//86 143//86
f  223//86 143//86 218//86
f  218//87 143//87 142//87
f  218//87 142//87 219//87
f  219//88 142//88 50//88
f  219//88 50//88 49//88
f  97//75 96//75 227//75
f  97//75 227//75 155//75
f  155//76 227//76 228//76
f  155//76 228//76 163//76
f  163//77 228//77 229//77
f  163//77 229//77 164//77
f  164//78 229//78 237//78
f  164//78 237//78 166//78
f  166//79 237//79 236//79
f  166//79 236//79 168//79
f  168//80 236//80 235//80
f  168//80 235//80 172//80
f  172//81 235//81 234//81
f  172//81 234//81 173//81
f  173//58 234//58 233//58
f  173//58 233//58 175//58
f  175//82 233//82 232//82
f  175//82 232//82 183//82
f  183//83 232//83 231//83
f  183//83 231//83 184//83
f  184//84 231//84 230//84
f  184//84 230//84 186//84
f  186//85 230//85 226//85
f  186//85 226//85 187//85
f  187//86 226//86 225//86
f  187//86 225//86 178//86
f  178//87 225//87 224//87
f  178//87 224//87 180//87
f  180//88 224//88 46//88
f  180//88 46//88 45//88

